<?xml version="1.0" encoding="UTF-8"?>
<svg width="128" height="32" viewBox="0 0 128 32" xmlns="http://www.w3.org/2000/svg">
    <!-- Idle Frame 1 -->
    <g transform="translate(0,0)">
        <!-- Body -->
        <circle cx="16" cy="16" r="8" fill="#FF6B6B"/>
        <!-- Eyes -->
        <circle cx="14" cy="14" r="2" fill="white"/>
        <circle cx="18" cy="14" r="2" fill="white"/>
        <!-- Smile -->
        <path d="M14 18 Q16 20 18 18" stroke="white" fill="none" stroke-width="1"/>
        <!-- Arms -->
        <line x1="12" y1="16" x2="8" y2="20" stroke="#FF6B6B" stroke-width="3"/>
        <line x1="20" y1="16" x2="24" y2="20" stroke="#FF6B6B" stroke-width="3"/>
        <!-- Legs -->
        <line x1="16" y1="24" x2="14" y2="28" stroke="#FF6B6B" stroke-width="3"/>
        <line x1="16" y1="24" x2="18" y2="28" stroke="#FF6B6B" stroke-width="3"/>
    </g>

    <!-- Idle Frame 2 -->
    <g transform="translate(32,0)">
        <!-- Body -->
        <circle cx="16" cy="16" r="8" fill="#FF6B6B"/>
        <!-- Eyes -->
        <circle cx="14" cy="14" r="2" fill="white"/>
        <circle cx="18" cy="14" r="2" fill="white"/>
        <!-- Smile -->
        <path d="M14 18 Q16 20 18 18" stroke="white" fill="none" stroke-width="1"/>
        <!-- Arms -->
        <line x1="12" y1="16" x2="8" y2="18" stroke="#FF6B6B" stroke-width="3"/>
        <line x1="20" y1="16" x2="24" y2="18" stroke="#FF6B6B" stroke-width="3"/>
        <!-- Legs -->
        <line x1="16" y1="24" x2="14" y2="26" stroke="#FF6B6B" stroke-width="3"/>
        <line x1="16" y1="24" x2="18" y2="26" stroke="#FF6B6B" stroke-width="3"/>
    </g>

    <!-- Climbing Frame 1 -->
    <g transform="translate(64,0)">
        <!-- Body -->
        <circle cx="16" cy="16" r="8" fill="#FF6B6B"/>
        <!-- Eyes -->
        <circle cx="14" cy="14" r="2" fill="white"/>
        <circle cx="18" cy="14" r="2" fill="white"/>
        <!-- Determined Expression -->
        <path d="M14 18 Q16 16 18 18" stroke="white" fill="none" stroke-width="1"/>
        <!-- Arms -->
        <line x1="12" y1="16" x2="8" y2="12" stroke="#FF6B6B" stroke-width="3"/>
        <line x1="20" y1="16" x2="24" y2="12" stroke="#FF6B6B" stroke-width="3"/>
        <!-- Legs -->
        <line x1="16" y1="24" x2="14" y2="20" stroke="#FF6B6B" stroke-width="3"/>
        <line x1="16" y1="24" x2="18" y2="20" stroke="#FF6B6B" stroke-width="3"/>
    </g>

    <!-- Climbing Frame 2 -->
    <g transform="translate(96,0)">
        <!-- Body -->
        <circle cx="16" cy="16" r="8" fill="#FF6B6B"/>
        <!-- Eyes -->
        <circle cx="14" cy="14" r="2" fill="white"/>
        <circle cx="18" cy="14" r="2" fill="white"/>
        <!-- Determined Expression -->
        <path d="M14 18 Q16 16 18 18" stroke="white" fill="none" stroke-width="1"/>
        <!-- Arms -->
        <line x1="12" y1="16" x2="8" y2="20" stroke="#FF6B6B" stroke-width="3"/>
        <line x1="20" y1="16" x2="24" y2="20" stroke="#FF6B6B" stroke-width="3"/>
        <!-- Legs -->
        <line x1="16" y1="24" x2="14" y2="28" stroke="#FF6B6B" stroke-width="3"/>
        <line x1="16" y1="24" x2="18" y2="28" stroke="#FF6B6B" stroke-width="3"/>
    </g>
</svg> 